<svg width="51" height="13" viewBox="0 0 51 13" fill="none" xmlns="http://www.w3.org/2000/svg">
<g id="cafe W">
<path d="M0.826172 7.34808C0.826172 10.3012 2.26234 12.0121 4.74572 12.0121C5.93505 12.0121 6.89997 11.6215 7.58814 10.9028C8.09678 10.3637 8.42591 9.67621 8.42591 9.18402C8.42591 8.87933 8.25386 8.68402 7.94718 8.68402C7.70782 8.68402 7.57318 8.80902 7.4161 9.15277C6.92989 10.3793 6.00237 11.0121 4.78312 11.0121C2.92807 11.0121 1.87338 9.69183 1.87338 7.3559V5.55121C1.87338 3.22308 2.92059 1.88715 4.76068 1.88715C5.95749 1.88715 6.85509 2.5434 7.37122 3.77777C7.53578 4.14496 7.69286 4.26215 7.9397 4.26215C8.21646 4.26215 8.40346 4.07465 8.40346 3.74652C8.40346 3.28558 8.08182 2.58246 7.57318 2.0434C6.87753 1.28558 5.92757 0.894958 4.73076 0.894958C2.26234 0.894958 0.826172 2.62152 0.826172 5.55902V7.34808Z" fill="#FFFCF9"/>
<path d="M10.1688 11.8793C10.453 11.8793 10.625 11.7387 10.7372 11.3715L11.7022 8.4184H15.6591L16.624 11.3715C16.7437 11.7387 16.9083 11.8793 17.1925 11.8793C17.4917 11.8793 17.6937 11.6918 17.6937 11.4028C17.6937 11.2778 17.6638 11.1528 17.6189 11.02L14.4099 1.66058C14.2603 1.24652 14.0509 1.0434 13.6844 1.0434C13.3104 1.0434 13.1084 1.24652 12.9588 1.66058L9.74239 11.02C9.69751 11.1528 9.67507 11.2778 9.67507 11.4028C9.67507 11.6996 9.86956 11.8793 10.1688 11.8793ZM12.0014 7.51996L13.6619 2.46527H13.7068L15.3599 7.51996H12.0014Z" fill="#FFFCF9"/>
<path d="M19.9377 11.8559C20.2593 11.8559 20.4688 11.6215 20.4688 11.2543V7.01996H24.4257C24.7698 7.01996 24.9867 6.83246 24.9867 6.52777C24.9867 6.21527 24.7698 6.01996 24.4257 6.01996H20.4688V2.12152H24.8222C25.1663 2.12152 25.3832 1.93402 25.3832 1.62933C25.3832 1.31683 25.1663 1.12152 24.8222 1.12152H20.4463C19.7133 1.12152 19.4216 1.41058 19.4216 2.11371V11.2543C19.4216 11.6215 19.6161 11.8559 19.9377 11.8559Z" fill="#FFFCF9"/>
<path d="M27.1111 10.7934C27.1111 11.4965 27.4028 11.7778 28.1358 11.7778H32.6014C32.9455 11.7778 33.1624 11.5903 33.1624 11.2856C33.1624 10.9731 32.9455 10.7778 32.6014 10.7778H28.1583V6.82465H32.3396C32.6837 6.82465 32.9006 6.63715 32.9006 6.33246C32.9006 6.02777 32.6837 5.83246 32.3396 5.83246H28.1583V2.12152H32.6089C32.953 2.12152 33.1699 1.93402 33.1699 1.62933C33.1699 1.31683 32.953 1.12152 32.6089 1.12152H28.1358C27.4028 1.12152 27.1111 1.41058 27.1111 2.11371V10.7934Z" fill="#FFFCF9"/>
<path d="M39.154 10.3637C39.4532 11.4809 40.074 11.8481 40.9417 11.8481C41.8019 11.8481 42.4227 11.3168 42.6621 10.3637L43.8589 5.64496H43.9636L45.138 10.27C45.4148 11.3793 46.0206 11.8481 46.9557 11.8481C47.8383 11.8481 48.3918 11.3637 48.6611 10.3637L50.5311 3.27777C50.591 3.06683 50.6358 2.69183 50.6358 2.42621C50.6358 1.6059 50.0599 1.03558 49.2296 1.03558C48.4367 1.03558 47.9505 1.55902 47.7411 2.68402L46.7313 7.7934H46.5891L45.3998 2.62152C45.1455 1.51215 44.6967 1.03558 43.9038 1.03558C43.1109 1.03558 42.692 1.48871 42.4227 2.62152L41.2409 7.7934H41.1063L40.0216 2.68402C39.7823 1.53558 39.3335 1.03558 38.5481 1.03558C37.7028 1.03558 37.1269 1.61371 37.1269 2.45746C37.1269 2.71527 37.1792 3.1059 37.2839 3.48871L39.154 10.3637Z" fill="#FFFCF9"/>
</g>
</svg>
